<?xml version="1.0" encoding="UTF-8"?>
<svg id="Layer_1" xmlns="http://www.w3.org/2000/svg" version="1.1" viewBox="0 0 2500 805.9">
  <!-- Generator: Adobe Illustrator 29.4.0, SVG Export Plug-In . SVG Version: 2.1.0 Build 152)  -->
  <defs>
    <style>
      .st0 {
        fill: #22bfd3;
      }
    </style>
  </defs>
  <path class="st0" d="M1987.9,558l-47.9-49.5c-1.6-1.4-1.9-3.7-.7-5.4l36.6-61.5c.8-1.7.9-2.9.9-3.4,0-3.9-3.1-7-7-7.1h-26.8c-2.6,0-5.1,1.4-6.4,3.7l-23.2,40c-1.1,1.5-3.4,1.9-5,.8l-37.4-38.5-.9-2.3,1.2-2.7.4-.4c21.2-12.3,45.3-30.4,45.3-62.3s-26.3-61.2-65.4-61.2-67.3,25.6-67.3,63.9,7,33.6,21.5,51.3l.4.4.7,2.6c-.1,1-.6,1.9-1.4,2.5-31.9,18.1-47.9,42.1-47.9,71.4,0,49.8,41.6,75.8,82.8,75.8s50.3-10.8,71.5-35.2l.4-.5c1.3-1.2,3.6-1.2,5.1.2l25.7,26.6.7.7c1.4,1.3,3.2,2.1,5,2.1h31.6s2.5,0,2.5,0c3.9,0,7.1-3.2,7.1-7.1,0-1.8-.7-3.6-2-5M1852.3,345.2c16.1,0,24.7,11.1,24.7,24.6s-14.1,25-31.1,34.5l-.9.4c-1.4.7-3.1.4-4.2-.7l-.4-.4c-7.4-8.1-16.1-21-16.1-30.3,0-15.8,11.3-28.1,28-28.1M1886.6,514.2v.2c-12.5,14.7-26,24.5-45.8,24.5s-41.8-16.9-41.8-38.3,8.1-30.4,32.2-44.9c1.7-1,3.6-.8,4.7.4l50.3,52.6c.9.9,1.3,1.8,1.3,2.8h0c0,0-1,2.7-1,2.7h0ZM1725.9,538.4h-1.5c-38.4,0-57.9-20.3-57.9-60.5v-118.4c0-2.1,1.7-3.7,3.8-3.7h60.3c4,0,7.2-3.2,7.2-7.2v-26.3c0-4-3.2-7.2-7.2-7.2h-60.1c-2.2,0-3.9-1.7-3.9-3.9,0,0,0,0,0,0v-54.4c.1-3.8-2.9-7.2-6.9-7.4h-.8l-30.8,2.4c-3.8,0-7,3.2-7,7.2v52.4c0,2.1-1.7,3.7-3.8,3.7,0,0,0,0,0,0h-37.8c-4,0-7.2,3.2-7.2,7.1v26.5c0,2,.8,3.8,2.2,5,1.4,1.3,3.2,2,5.2,2h37.7c2.1,0,3.8,1.7,3.8,3.7v126.3c0,67.8,51,92,95.8,92,0,0,5.3,0,9.3-.3,4.1-.4,7.1-3.2,7.1-7.1v-24.8c0-4-3.3-7.1-7.2-7.1M1553.3,559.8c-2.4-6.9-3.1-14.4-3.3-17.8-.1-2.5-.2-12.4-.2-12.4v-125.1c0-66.1-46.7-89.6-90.5-89.6s-66.2,9.1-86.5,22.6c-1.6,1.1-2.7,2.7-3.2,4.5-.4,1.8,0,3.7,1,5.3l16.1,21.8c2.3,3.1,6.7,3.8,9.9,1.6l2.2-1.4c15.9-9.9,34.7-15.6,53.8-15.6,54,0,52.4,42.2,52.4,47.7s-1.7,3.5-3.7,3.5l-8.3-.2c-41.9-1.5-148.1,12.7-148.1,96.9s41.2,74.7,79.7,74.7,67.2-14.8,82.2-32.9l.2-.2.8-.4,1,1c0,2.3,0,7.5.5,12.1.4,4.1.9,7.2,1.6,9.4.6,2,1.9,3.9,3.8,4.9.9.5,1.9.7,3,.8h29.9c3.9,0,7-3.1,7-6.9,0-1.2-1-4.4-1-4.4M1506.8,461.9c-6.1,43.2-27.4,68.1-66.6,74.5-27.6,4.5-52.7-6.8-54-36.4-1.5-32.5,36.3-59.8,106-56.8,0,0,5.1.3,8.6.7,3.1.3,4.9,1.3,6.1,3.1,1.1,1.7,1.3,5.2,0,14.9M2131.7,538.4h-1.5c-38.5,0-58-20.3-58-60.5v-118.4c0-2.1,1.7-3.7,3.8-3.7h60.3c4,0,7.2-3.2,7.2-7.2v-26.3c0-4-3.2-7.2-7.2-7.2h-60.1c-2.2,0-3.9-1.7-4-3.9,0,0,0,0,0,0v-54.4c.2-3.8-2.9-7.2-6.9-7.4h-.8l-30.8,2.4c-3.8,0-7,3.2-7,7.2v52.4c0,2.1-1.7,3.7-3.7,3.7h-37.9c-4,0-7.2,3.2-7.2,7.1v26.5c0,2,.8,3.8,2.2,5,1.4,1.3,3.2,2,5.2,2h37.7c2.1,0,3.7,1.7,3.7,3.7v126.3c0,67.8,51,92,95.8,92,0,0,5.3,0,9.4-.3,4-.4,7.1-3.2,7.1-7.1v-24.8c0-3.9-3.2-7.1-7.2-7.1M1210.1,365.8c0-6.1-.8-18.3-3.7-30.8-2-8.4-4.3-16.7-6.9-24.9,4.5,15.4,3.9,26.2,3.9,30.3,0,18.8-23.5,133.7-253,154.7-19.9,1.7-165.7,4-292.5-28-84.4-21.3-169.1-62.6-185.1-119.9-2.5-8.9-1.3-17.2.6-24.8-6.5,23.3-10.8,47.1-12.8,71.2,1.4,60.3,53.8,130.5,149.7,160.9,109.6,34.5,176.9,35.6,336.3,0,265.9-59.3,263.4-175.8,263.4-188.7M618.7,686.6c-62.7-25.9-106.1-69-123.4-100.5,16,33.9,36.8,65.2,61.9,92.9,81.7,76.8,207.3,86.1,265,86.1,244.2,0,331.4-128.3,351.1-162.7,3.7-6.9,7.1-13.9,10.3-21-38.6,79.6-239,239.8-564.9,105.2M884.4,636.3c-73.9,2.6-204-22.8-286-56.4-65.9-26.9-131.2-79.3-138.1-129.3.8,11.9,2.1,23.8,4,35.5,40.4,220.5,318.2,207.9,366.1,202.7,349.4-38.8,379.5-188,384.1-217.4.7-6.2,1.3-12.3,1.8-18.5-6.2,39.3-65.3,173.9-331.9,183.5M568.5,190.4c0,34.6,50.2,89.7,195.8,89.7s156-16.7,208.6-34.2c84.4-28,126.1-62.3,124.6-87.8-.2-3.9-1.7-10.4-6.4-15.5-18.8-16.9-39.2-31.8-61-44.5,14.4,8.4,22.6,18.2,22.6,29,0,38-92.9,72.9-214.3,76-121.3,3.1-221.9-26.8-224.6-64.7-.9-12.6,8.2-25,25.3-35.9-13.1,8.1-25.6,17-37.6,26.6-33.8,28-33,57.6-33,61.3M490.4,297.7c0-16.2,2.3-27.6,6.6-37.7,7.4-15.1,15.7-29.7,24.9-43.6-2.4,3.9-3.7,8.4-3.7,13.8,0,35.2,86.3,81,204.1,96,39.9,5.1,145.6,19.5,227.4,12.8,165.2-13.6,201.9-71.3,201.9-108.8s-5.5-25.2-11.1-34c7.5,10,14.6,20.3,21.1,30.9,12.7,22,11,30.7,11,34.6,0,76.6-142.6,126.5-237.9,152.6-244.7,66.8-444.3-24.3-444.3-116.6"/>
  <path class="st0" d="M462.7,461.6c-1-3.7-1.9-7.3-2.4-11,.6,9.3,1.5,18.5,2.8,27.6-.6-5.5-.7-11.1-.4-16.6M473.2,323.1c-2.4,8.4-4.4,17.1-6.2,25.8,1-3.4,2.5-7,4.4-11,0-5.2.7-10.2,1.8-14.9M495.4,586.3c8.7,18.7,19.1,36.6,30.6,53.4-6.2-10-11.4-20.5-15.6-31.4-6.2-7.7-11.2-15.1-15.1-22M543.1,266.1c-4.7-3.6-8.8-7.2-12.3-10.9-16.4,11.3-30,23.4-40.3,36.2,0,2,0,4.1,0,6.3,0,4,.4,8.2,1.2,12.2,12.6-14.1,29.8-29.3,51.5-43.8M1142.4,262.4c10.2,5.3,19.4,10.9,27.6,17,1.7-5.8,2.6-11.7,2.6-17.8,0-3.7,1.5-12.4-10.6-33.8-6.5-10.7-13.6-21-21.1-31l-.3-.3c5.6,8.7,10.9,23.4,10.9,33.6,0,9.7-2.5,20.8-9.1,32.3M521.6,216.8c-1.1,1.6-2.1,3.3-3.2,4.9l1.8-2.1c.4-1,.9-1.8,1.3-2.8M1052.2,122.5c15.1,6.1,28.9,13.7,41.1,23l-2.1-2.8c-12.2-11-25.1-21.1-38.6-30.4-3.5-2.2-7.1-4.2-10.9-6,5.6,5,9.2,10.4,10.5,16.1M1121.8,652.8c-1,5.4-2.3,10.8-3.8,16.1,30.9-27.6,47.7-53.5,55.2-66.4l.8-1.5-.3-2.8c-11.5,17-28.9,36-51.8,54.4M663.4,652.8c0-16.7,4-32.6,11.3-47.5-9.2-2.5-18.4-5.1-27.6-8-7.2,15.6-11.1,32.4-11.1,49.8s.9,15.6,2.4,23.2c9.3,3,18.7,5.5,28.1,7.7-2.1-8.2-3.2-16.7-3.2-25.1M1206.7,335.8c-.9-3.6-1.7-7.1-2.7-10.8-.5-1.3-1.1-2.5-1.8-3.7,1.6,9.4,1.3,16,1.3,19.1,0,6.1-2.5,22.7-14,42.7,5.3,6.1,9.9,12.4,13.7,18.9,7.2-18.7,7-32.3,7-36.3,0-6-.8-17.8-3.5-30M1206.4,483.1c-3.5,7.7-8.3,16.1-14.2,24.9,1.6,5.5,2.7,10.8,3.3,16,5.4-9.2,9.8-18.8,13.1-28.9-.6-4-1.3-8-2.2-12M1165.6,563.3c-2.1-5.7-4.4-11.3-7.1-16.7-12.1,11-26.7,22.1-44,32.4,2.6,6.9,4.8,14.1,6.3,21.3,18.2-12.2,32.9-24.7,44.7-37M595.7,237.1c39.9-18.2,89-32.6,146.9-38.7-19.9-2.6-38.1-6-54.2-10.4-37.9,10.5-73.5,23-104.6,37.5,3.4,3.8,7.4,7.7,12,11.5M500.2,552.6c0-10.7,1.2-21.4,3.5-31.9-5.5-5.2-10.7-10.4-15.3-15.8-3.5,15.4-4.4,30.8-2.6,46.3,4.9,9.5,10.4,18.7,16.7,27.4-1.5-8.6-2.3-17.3-2.3-26M486,374.1c-9.9,13.5-17.4,28.3-21.9,44.4,1.1,4.9,2.7,9.9,4.5,14.8,5.7-16,15.1-31.8,27.6-46.8-3.7-4-7.2-8.2-10.2-12.5M617,148.9c-17,7.1-32.2,14.5-45.3,21.8-2.3,7-3,12.7-3.2,16.2,16.7-8.6,36.7-17.5,58.9-26.1-4.6-3.9-8.1-7.8-10.5-11.9M1095.4,169.7c-17.4-6-38.1-10.5-61.3-13.5-27,20.7-81.5,37.4-149.5,44.1,42.7,4.3,94.8,11.7,144.4,23.2,37.5-18.1,59.7-37,66.3-53.8M1027.9,615.2c3.5,9.1,5.6,18.6,6.5,28.3,10.6-3.9,21-8.2,31.2-12.8-1.2-8.8-3.5-17.4-6.6-25.6-10.2,3.8-20.6,7.2-31.1,10.2M994.1,739.2c16.7-5.7,33-12.4,48.8-20.2,5.6-7.8,10.3-16.2,14.1-25.1-12.8,6.4-26,12.2-39.5,17.2-6.3,10.1-14.2,19.5-23.4,28M552.8,648.7c3.3,13.8,8.4,27.1,15.3,39.9,13.4,11.1,27.8,20.7,42.8,29-10.8-14.6-19.2-30.3-24.5-46.8-11.7-6.6-22.9-14-33.6-22.1M1140.7,435.6c8.9,7.5,16.6,14.9,23,22.2,9.3-8.8,16.8-17.5,22.7-25.6-4.7-8.1-10-15.9-15.8-23.2-7.9,8.8-17.7,17.9-29.9,26.5M510.9,496.6c9.4-24.2,24.8-46.7,45-67-6.6-3.4-13.1-7.1-19.5-11-17.8,19.4-31.5,40.3-40.2,61.9,4.6,5.6,9.5,11,14.7,16M1201.2,315.4c-.4-1.2-.9-2.6-1.3-3.8.3,1.1.6,2,.8,3l.5.9M679.3,708.7c-10.7-3.4-21.3-7.1-31.8-11,8.5,18.4,21.7,35.2,38.5,49.8,13.5,3.7,27.2,6.8,41,9.3-20.3-13.1-36.7-29.6-47.7-48.1M785.7,333.8c-26.8-2.8-49.2-5.8-63.4-7.6-9-1.1-18-2.5-27-4-51,16.1-95.7,40.5-130.7,69.6,7.4,4.1,14.9,7.8,22.6,11.3,50.9-37.1,120.4-62.3,198.5-69.2M579.7,629c0-18.1,3.2-36,9.3-53.1-10.3-4.5-20.4-9.7-30.2-15.3-6.5,17.4-10,35.6-10,54.3s.2,7.4.5,11c10,7.5,20.6,14.3,31.6,20.3-.8-5.7-1.1-11.5-1.1-17.3M685.9,473.5c-9.4-1.9-18.7-4.1-27.9-6.4-5.9-1.5-11.8-3.1-17.7-4.8-30.7,21.3-55.1,47-70.9,75.6,10.1,5,20.4,9.4,31,13.2,9.2-16.3,21.3-31.4,36.4-44.7,14.2-12.4,30.7-23.4,49.2-32.8M591.5,292.8c-29.7,14.5-58.7,32.5-82,54.6,3.7,4.7,7.8,9.1,12.1,13.3,25.4-22.5,57.5-42.6,93-59-7.8-2.7-15.5-5.7-23.1-8.9M1086.7,464.9c-16.9,6.8-36.2,12.9-58.2,18,15.9,9.7,30.3,20.5,42.8,32.5,17.9-7.8,33.6-15.8,47.1-24-9.9-9.7-20.5-18.6-31.8-26.6M1041.9,378.9c20.1-8.2,39.5-17.2,56.9-27.2-18.1-9.7-39.3-18.5-63.8-25.9-23.7,5.9-51.9,10.4-85.4,13.2-10,.9-20.2,1.3-30.8,1.6,23.4,4.4,45.9,10.5,67.1,17.5,20.6,6.8,39.1,13.7,56,20.8M1125.8,334.4c19.1-14.1,33.7-29.8,41.2-47-9.1-5.7-19.5-10.9-30.7-15.8-11.1,14.3-29.4,28.4-57.9,40.2,16.8,6.8,32.7,14.4,47.4,22.6M910.9,496c-24.1,0-56.8-1.2-93.8-4-65.5,7.6-121.2,36.9-152.8,77.4,10.5,2.4,20.8,4.4,31,6.1,33.4-36.6,89.8-60.8,153.9-60.8s89.5,12.8,122.1,34c12.1-3,24.2-6.3,36.1-10-26-20-59.1-34.9-96.5-42.7M903.3,265.1c25.8-5.7,49.1-12.4,69.6-19.2,11.3-3.7,21.8-7.7,31.5-11.5-28.9-5.4-54.6-8.7-72-10.3-66-6.1-164.4,12.7-189.8,18-7.9,1.5-43.8,9-87.5,24.3,10.3,3.1,21.7,5.7,34.1,7.8,39.6-11.1,80.7-17.4,119.5-17.4,25.7,0,58.7,2.7,94.7,8.3M934.7,414.3c6.4-1.8,13.2-3.6,20-5.7-29.4-6.3-60.6-9.7-93-9.7-61.4,0-118.6,12.2-167,33.3,69.3,9.7,151.8,6.1,240.1-18"/>
</svg>