<?xml version="1.0" encoding="UTF-8"?>
<svg id="Layer_1" xmlns="http://www.w3.org/2000/svg" version="1.1" viewBox="0 0 2500 805.9">
  <!-- Generator: Adobe Illustrator 29.4.0, SVG Export Plug-In . SVG Version: 2.1.0 Build 152)  -->
  <defs>
    <style>
      .st0 {
        fill: #c42b7a;
      }

      .st0, .st1 {
        fill-rule: evenodd;
      }

      .st1 {
        fill: #abadb0;
      }
    </style>
  </defs>
  <path class="st0" d="M276.3,291.7v218.2c0,15.8.8,25.5,2.3,29.2,2.8,8.9,11.9,13.3,27.2,13.3h10.2v14.8h-119.9v-14.8h10.2c11,0,18.7-2.2,23-6.6s6.5-16.4,6.5-35.9v-218.2h-8.9c-13.6-.1-26.8,4.1-37.8,12.2-16.8,12.3-26.6,37.1-29.3,74.2h-12.7l2.3-101.2h214.7l1.7,101.2h-13c-5.4-42.6-18.1-69.2-38.3-79.7-8.7-4.5-19.2-6.7-31.7-6.7h-6.6Z"/>
  <path class="st1" d="M147.1,404.6h60.7v60.7h-60.7v-60.7h0ZM305.1,404.6h60.7v60.7h-60.7v-60.7ZM487.2,404.6h60.7v60.7h-60.7v-60.7ZM669.4,404.6h60.7v60.7h-60.7v-60.7ZM1928,404.6h60.7v60.7h-60.7v-60.7ZM2110.1,404.6h60.7v60.7h-60.7v-60.7ZM2292.2,404.6h60.7v60.7h-60.7v-60.7ZM897.5,567.3h-13.4l-76.6-264.1v189.9c0,19.4.8,31.6,2.3,36.7,4.5,15.1,14.6,22.7,30.1,22.7h5.7v14.8h-90.3v-14.8h7.1c10.9,0,18.6-4.5,23.2-13.5,3.7-7.4,5.6-22.6,5.6-45.8v-167.7c0-10-.4-16.7-1.3-19.9-1.7-6.8-5.5-11.1-11.4-12.9-3.4-1.1-8.4-1.7-15-1.7h-8.1v-14h84.3l61.7,212.8,63.3-212.8h85.7v14h-5.8c-11.3,0-19.1,2.2-23.5,6.7-4.3,4.4-6.5,16.4-6.5,35.9v176.3c0,15.7.8,25.4,2.4,29.2,2.7,8.9,11.9,13.3,27.6,13.3h5.8v14.8h-109.7v-14.8h3.8c11.2,0,19.1-2.5,23.7-7.4,4-4.4,6-16.1,6-35.2v-206.7l-76.6,264.1h0ZM1197.9,401.1c6.7,14.9,10.1,36.9,10.1,65.8,0,61.3-15.4,91.9-46.2,91.9s-46.4-30.9-46.4-92.7,3.4-49.9,10.1-65c7.7-17.4,19.6-26,35.5-26,16.9,0,29.3,8.7,37,26h0ZM1095.1,392.9c-14.5,19.6-21.8,44.5-21.8,74.4s7.4,55.1,22.2,74c16.8,21.5,38.8,32.2,66.3,32.2s49.3-10.7,66.1-32.2c14.8-18.9,22.2-43.7,22.2-74.4s-7.4-55.6-22.2-74.4c-16.9-21.5-38.6-32.2-65-32.2s-51.7,10.9-67.8,32.6ZM1417.6,465.2c0,60.8-14.3,91.1-42.9,91.1s-28.7-8.5-36.6-25.5c-7.2-15.4-10.8-37-10.8-64.6s4.2-49.3,12.7-64.4c8.9-15.9,20.8-23.8,35.7-23.8,27.9,0,41.9,29,41.9,87.1h0ZM1330.4,273l-62.3,3.1v14h3.2c8.2,0,13.9,1.7,17,5.1,3.6,3.8,5.4,13.7,5.4,29.6v199.4c0,19.6-.7,31.4-2.1,35.5l-2.5,7.4h14.5c8.5-13.8,14.4-20.6,17.6-20.6s4.6,1.1,7.4,3.3c7.5,6,12.3,9.6,14.4,11,10.8,6.8,22.6,10.2,35.5,10.2,26.5,0,47.2-11.8,62-35.5,12.6-20.1,18.9-44.1,18.9-72.1s-8.7-58.7-26.1-78c-13.4-14.8-30.7-22.2-51.7-22.2s-41.9,10.6-51.3,31.7v-122h0ZM1547.5,363.4v155.3c0,16.1,1.8,26.1,5.3,30.1,3.1,3.6,8.6,5.3,16.6,5.3h6.9v13.2h-94.2v-13.2h6.9c8,0,13.7-1.9,17-5.7,3.3-3.8,4.9-13.7,4.9-29.8v-103.8c0-16.1-1.8-26.1-5.4-29.9-3.1-3.4-8.8-5.1-17-5.1h-4.9v-13.4l63.9-3h0ZM1526.5,274.6c6.3,0,11.8,2.4,16.4,7.1,4.6,4.7,6.9,10.3,6.9,16.6s-2.3,12.3-6.9,16.8c-4.6,4.6-10.2,6.9-16.8,6.9s-12.1-2.3-16.8-7c-4.5-4.4-7.1-10.4-7-16.8,0-6.6,2.4-12.2,7.1-16.8,4.7-4.6,10.4-6.9,17.1-6.9h0ZM1657.2,273v245.6c0,16.1,1.7,26.1,5.2,30.1,3.1,3.6,8.6,5.3,16.6,5.3h6.9v13.2h-94.2v-13.2h7c8,0,13.6-1.9,16.9-5.7,3.3-3.8,4.9-13.7,4.9-29.8v-194.4c0-15.8-1.8-25.7-5.4-29.7-3.2-3.4-8.8-5.1-16.9-5.1h-4.9v-13.4l63.9-3h0ZM1747.9,450.5c.1-14.6,1.6-27,4.5-37.4,7-25.4,18.9-38.1,35.8-38.1s25.6,9.4,32.2,28.4c4.4,12.8,6.7,28.6,6.7,47.1h-79.1,0ZM1853.8,405.4c-15-30.1-37.5-45.2-67.5-45.2s-37.4,8-51.7,24.1c-18.2,20.3-27.2,47.4-27.2,81.3s9,65,27.2,84.4c14.6,15.6,33.3,23.5,56.2,23.5s55.8-18.4,74.1-55.2l-13-6.8c-5.6,11.5-11.1,20.5-16.6,27-10.1,11.9-22.7,17.8-37.7,17.8s-33-9.5-40.9-28.5c-5.7-13.5-8.6-34.3-8.7-62.5h119.3c-.9-23.7-5.3-43.7-13.4-59.9h0Z"/>
</svg>